<svg xmlns="http://www.w3.org/2000/svg" version="1.1" xmlns:xlink="http://www.w3.org/1999/xlink" xmlns:svgjs="http://svgjs.dev/svgjs" width="2000" height="1999" viewBox="0 0 2000 1999"><g transform="matrix(1,0,0,1,-0.431486880466764,-0.4312711370263287)"><svg viewBox="0 0 343 343" data-background-color="#ffffff" preserveAspectRatio="xMidYMid meet" height="1999" width="2000" xmlns="http://www.w3.org/2000/svg" xmlns:xlink="http://www.w3.org/1999/xlink"><g id="tight-bounds" transform="matrix(1,0,0,1,0.0740000000000407,0.07400000000001228)"><svg viewBox="0 0 342.85155851775386 342.85155851775386" height="342.85155851775386" width="342.85155851775386"><rect width="342.852" height="342.852" fill="url(#04288dbe-0787-48b0-bbb7-247ad2afae34)" mask="url(#01fe426c-634b-42d5-b33d-9eec15ce92a6)" data-fill-palette-color="tertiary"></rect><g><svg></svg></g><g><svg viewBox="0 0 342.85155851775386 342.85155851775386" height="342.85155851775386" width="342.85155851775386"><g><path d="M0 171.426c0-94.676 76.75-171.426 171.426-171.426 94.676 0 171.426 76.75 171.426 171.426 0 94.676-76.75 171.426-171.426 171.426-94.676 0-171.426-76.75-171.426-171.426zM171.426 330.551c87.882 0 159.125-71.243 159.125-159.125 0-87.882-71.243-159.125-159.125-159.125-87.882 0-159.125 71.243-159.125 159.125 0 87.882 71.243 159.125 159.125 159.125z" data-fill-palette-color="tertiary" fill="url(#04288dbe-0787-48b0-bbb7-247ad2afae34)" stroke="transparent"></path><ellipse rx="164.56874808852186" ry="164.56874808852186" cx="171.42577925887693" cy="171.42577925887693" fill="url(#04288dbe-0787-48b0-bbb7-247ad2afae34)" stroke="transparent" stroke-width="0" fill-opacity="1" data-fill-palette-color="tertiary"></ellipse></g><g transform="matrix(1,0,0,1,64.84655864529837,103.22524460551388)"><svg viewBox="0 0 213.1584412271571 136.4010693067261" height="136.4010693067261" width="213.1584412271571"><g><svg viewBox="0 0 213.1584412271571 136.4010693067261" height="136.4010693067261" width="213.1584412271571"><g><svg viewBox="0 0 213.1584412271571 136.4010693067261" height="136.4010693067261" width="213.1584412271571"><g><svg viewBox="0 0 213.1584412271571 136.4010693067261" height="136.4010693067261" width="213.1584412271571"><g id="textblocktransform"><svg viewBox="0 0 213.1584412271571 136.4010693067261" height="136.4010693067261" width="213.1584412271571" id="textblock"><g><svg viewBox="0 0 213.1584412271571 136.4010693067261" height="136.4010693067261" width="213.1584412271571"><g transform="matrix(1,0,0,1,0,0)"><svg width="213.1584412271571" viewBox="4 -39.95 62.900000000000006 40.25" height="136.4010693067261" data-palette-color="#ffffff"><path d="M13.3-22.85L22.95-22.85Q24.25-22.85 25.65-22.3 27.05-21.75 28.35-20.85L28.35-20.85 28.3-20.85Q29.6-19.95 30.3-18.4 31-16.85 31-14.85L31-14.85 31-8Q31-3.95 28.3-1.95L28.3-1.95Q27-1 25.63-0.48 24.25 0.05 22.95 0.05L22.95 0.05 12.05 0.05Q10.75 0.05 9.38-0.48 8-1 6.7-1.95L6.7-1.95Q4-3.95 4-8L4-8 4-11.3Q4-13.65 6.95-13.65L6.95-13.65Q9.95-13.65 9.95-11.3L9.95-11.3 9.95-8.4Q9.95-7.1 10.7-6.05 11.45-5 13.3-5L13.3-5 21.7-5Q23.55-5 24.3-6.05 25.05-7.1 25.05-8.4L25.05-8.4 25.05-14.45Q25.05-15.7 24.3-16.78 23.55-17.85 21.7-17.85L21.7-17.85 12.05-17.85Q9.45-17.85 6.7-19.75L6.7-19.75Q4-21.85 4-25.8L4-25.8 4-31.75Q4-33.75 4.7-35.27 5.4-36.8 6.7-37.75L6.7-37.75 6.65-37.75Q7.95-38.6 9.35-39.15 10.75-39.7 12.05-39.7L12.05-39.7 22.95-39.7Q24.25-39.7 25.65-39.15 27.05-38.6 28.35-37.75L28.35-37.75 28.3-37.75Q29.6-36.8 30.3-35.27 31-33.75 31-31.75L31-31.75 31-28.8Q31-26.45 28-26.45L28-26.45Q25.05-26.45 25.05-28.8L25.05-28.8 25.05-31.3Q25.05-32.55 24.3-33.6 23.55-34.65 21.7-34.65L21.7-34.65 13.3-34.65Q11.45-34.65 10.7-33.6 9.95-32.55 9.95-31.3L9.95-31.3 9.95-26.2Q9.95-24.9 10.7-23.88 11.45-22.85 13.3-22.85L13.3-22.85ZM61-10.5L61-37.55Q61-39.95 63.95-39.95L63.95-39.95Q66.9-39.95 66.9-37.55L66.9-37.55 66.9-3.05Q66.9-1.3 65.05-0.5L65.05-0.5 65.1-0.5Q64.3-0.15 63.4 0.05 62.5 0.25 61.65 0.25L61.65 0.25Q61 0.25 60.3 0.13 59.6 0 58.97-0.28 58.35-0.55 57.82-1.03 57.3-1.5 57-2.2L57-2.2 46.15-29.25 44.8-29.1 44.8-2.1Q44.8 0.3 41.8 0.3L41.8 0.3Q38.85 0.3 38.85-2.1L38.85-2.1 38.85-36.55Q38.85-38.6 40.65-39.3L40.65-39.3Q42.3-39.95 44.15-39.95L44.15-39.95Q45.45-39.95 46.77-39.43 48.1-38.9 48.8-37.45L48.8-37.45 59.6-10.35 61-10.5Z" opacity="1" transform="matrix(1,0,0,1,0,0)" fill="#ffffff" class="wordmark-text-0" data-fill-palette-color="quaternary" id="text-0"></path></svg></g></svg></g></svg></g></svg></g><g></g></svg></g></svg></g></svg></g></svg></g><defs></defs><mask id="01fe426c-634b-42d5-b33d-9eec15ce92a6"><g id="SvgjsG2385"><svg viewBox="0 0 342.85155851775386 342.85155851775386" height="342.85155851775386" width="342.85155851775386"><g><svg></svg></g><g><svg viewBox="0 0 342.85155851775386 342.85155851775386" height="342.85155851775386" width="342.85155851775386"><g><path d="M0 171.426c0-94.676 76.75-171.426 171.426-171.426 94.676 0 171.426 76.75 171.426 171.426 0 94.676-76.75 171.426-171.426 171.426-94.676 0-171.426-76.75-171.426-171.426zM171.426 330.551c87.882 0 159.125-71.243 159.125-159.125 0-87.882-71.243-159.125-159.125-159.125-87.882 0-159.125 71.243-159.125 159.125 0 87.882 71.243 159.125 159.125 159.125z" fill="white" stroke="transparent"></path><ellipse rx="164.56874808852186" ry="164.56874808852186" cx="171.42577925887693" cy="171.42577925887693" fill="white" stroke="transparent" stroke-width="0" fill-opacity="1"></ellipse></g><g transform="matrix(1,0,0,1,64.84655864529837,103.22524460551388)"><svg viewBox="0 0 213.1584412271571 136.4010693067261" height="136.4010693067261" width="213.1584412271571"><g><svg viewBox="0 0 213.1584412271571 136.4010693067261" height="136.4010693067261" width="213.1584412271571"><g><svg viewBox="0 0 213.1584412271571 136.4010693067261" height="136.4010693067261" width="213.1584412271571"><g><svg viewBox="0 0 213.1584412271571 136.4010693067261" height="136.4010693067261" width="213.1584412271571"><g id="SvgjsG2384"><svg viewBox="0 0 213.1584412271571 136.4010693067261" height="136.4010693067261" width="213.1584412271571" id="SvgjsSvg2383"><g><svg viewBox="0 0 213.1584412271571 136.4010693067261" height="136.4010693067261" width="213.1584412271571"><g transform="matrix(1,0,0,1,0,0)"><svg width="213.1584412271571" viewBox="4 -39.95 62.900000000000006 40.25" height="136.4010693067261" data-palette-color="#ffffff"><path d="M13.3-22.85L22.95-22.85Q24.25-22.85 25.65-22.3 27.05-21.75 28.35-20.85L28.35-20.85 28.3-20.85Q29.6-19.95 30.3-18.4 31-16.85 31-14.85L31-14.85 31-8Q31-3.95 28.3-1.95L28.3-1.95Q27-1 25.63-0.48 24.25 0.05 22.95 0.05L22.95 0.05 12.05 0.05Q10.75 0.05 9.38-0.48 8-1 6.7-1.95L6.7-1.95Q4-3.95 4-8L4-8 4-11.3Q4-13.65 6.95-13.65L6.95-13.65Q9.95-13.65 9.95-11.3L9.95-11.3 9.95-8.4Q9.95-7.1 10.7-6.05 11.45-5 13.3-5L13.3-5 21.7-5Q23.55-5 24.3-6.05 25.05-7.1 25.05-8.4L25.05-8.4 25.05-14.45Q25.05-15.7 24.3-16.78 23.55-17.85 21.7-17.85L21.7-17.85 12.05-17.85Q9.45-17.85 6.7-19.75L6.7-19.75Q4-21.85 4-25.8L4-25.8 4-31.75Q4-33.75 4.7-35.27 5.4-36.8 6.7-37.75L6.7-37.75 6.65-37.75Q7.95-38.6 9.35-39.15 10.75-39.7 12.05-39.7L12.05-39.7 22.95-39.7Q24.25-39.7 25.65-39.15 27.05-38.6 28.35-37.75L28.35-37.75 28.3-37.75Q29.6-36.8 30.3-35.27 31-33.75 31-31.75L31-31.75 31-28.8Q31-26.45 28-26.45L28-26.45Q25.05-26.45 25.05-28.8L25.05-28.8 25.05-31.3Q25.05-32.55 24.3-33.6 23.55-34.65 21.7-34.65L21.7-34.65 13.3-34.65Q11.45-34.65 10.7-33.6 9.95-32.55 9.95-31.3L9.95-31.3 9.95-26.2Q9.95-24.9 10.7-23.88 11.45-22.85 13.3-22.85L13.3-22.85ZM61-10.5L61-37.55Q61-39.95 63.95-39.95L63.95-39.95Q66.9-39.95 66.9-37.55L66.9-37.55 66.9-3.05Q66.9-1.3 65.05-0.5L65.05-0.5 65.1-0.5Q64.3-0.15 63.4 0.05 62.5 0.25 61.65 0.25L61.65 0.25Q61 0.25 60.3 0.13 59.6 0 58.97-0.28 58.35-0.55 57.82-1.03 57.3-1.5 57-2.2L57-2.2 46.15-29.25 44.8-29.1 44.8-2.1Q44.8 0.3 41.8 0.3L41.8 0.3Q38.85 0.3 38.85-2.1L38.85-2.1 38.85-36.55Q38.85-38.6 40.65-39.3L40.65-39.3Q42.3-39.95 44.15-39.95L44.15-39.95Q45.45-39.95 46.77-39.43 48.1-38.9 48.8-37.45L48.8-37.45 59.6-10.35 61-10.5Z" opacity="1" transform="matrix(1,0,0,1,0,0)" fill="black" class="wordmark-text-0" id="SvgjsPath2382"></path></svg></g></svg></g></svg></g></svg></g><g></g></svg></g></svg></g></svg></g></svg></g><defs><mask></mask></defs></svg><rect width="342.85155851775386" height="342.85155851775386" fill="black" stroke="none" visibility="hidden"></rect></g></mask><linearGradient x1="0" x2="1" y1="0.548" y2="0.55" id="04288dbe-0787-48b0-bbb7-247ad2afae34"><stop stop-color="#ff6cab" offset="0"></stop><stop stop-color="#7366ff" offset="1"></stop></linearGradient></svg><rect width="342.85155851775386" height="342.85155851775386" fill="none" stroke="none" visibility="hidden"></rect></g></svg></g></svg>